<?xml version="1.0" encoding="UTF-8" standalone="no"?>
<!-- Created with Inkscape (http://www.inkscape.org/) -->

<svg
   version="1.1"
   id="svg1"
   width="378.89908"
   height="372.47708"
   viewBox="0 0 378.89908 372.47707"
   sodipodi:docname="3.svg"
   inkscape:version="1.4.2 (ebf0e940d0, 2025-05-08)"
   xmlns:inkscape="http://www.inkscape.org/namespaces/inkscape"
   xmlns:sodipodi="http://sodipodi.sourceforge.net/DTD/sodipodi-0.dtd"
   xmlns="http://www.w3.org/2000/svg"
   xmlns:svg="http://www.w3.org/2000/svg">
  <defs
     id="defs1">
    <inkscape:path-effect
       effect="bspline"
       id="path-effect9"
       is_visible="true"
       lpeversion="1.3"
       weight="33.333333"
       steps="2"
       helper_size="0"
       apply_no_weight="true"
       apply_with_weight="true"
       only_selected="false"
       uniform="false" />
    <inkscape:path-effect
       effect="bspline"
       id="path-effect8"
       is_visible="true"
       lpeversion="1.3"
       weight="33.333333"
       steps="2"
       helper_size="0"
       apply_no_weight="true"
       apply_with_weight="true"
       only_selected="false"
       uniform="false" />
    <inkscape:path-effect
       effect="bspline"
       id="path-effect7"
       is_visible="true"
       lpeversion="1.3"
       weight="33.333333"
       steps="2"
       helper_size="0"
       apply_no_weight="true"
       apply_with_weight="true"
       only_selected="false"
       uniform="false" />
    <inkscape:path-effect
       effect="bspline"
       id="path-effect6"
       is_visible="true"
       lpeversion="1.3"
       weight="33.333333"
       steps="2"
       helper_size="0"
       apply_no_weight="true"
       apply_with_weight="true"
       only_selected="false"
       uniform="false" />
    <inkscape:path-effect
       effect="bspline"
       id="path-effect5"
       is_visible="true"
       lpeversion="1.3"
       weight="33.333333"
       steps="2"
       helper_size="0"
       apply_no_weight="true"
       apply_with_weight="true"
       only_selected="false"
       uniform="false" />
    <inkscape:path-effect
       effect="bspline"
       id="path-effect4"
       is_visible="true"
       lpeversion="1.3"
       weight="33.333333"
       steps="2"
       helper_size="0"
       apply_no_weight="true"
       apply_with_weight="true"
       only_selected="false"
       uniform="false" />
    <inkscape:path-effect
       effect="bspline"
       id="path-effect3"
       is_visible="true"
       lpeversion="1.3"
       weight="33.333333"
       steps="2"
       helper_size="0"
       apply_no_weight="true"
       apply_with_weight="true"
       only_selected="false"
       uniform="false" />
    <inkscape:path-effect
       effect="bspline"
       id="path-effect2"
       is_visible="true"
       lpeversion="1.3"
       weight="33.333333"
       steps="2"
       helper_size="0"
       apply_no_weight="true"
       apply_with_weight="true"
       only_selected="false"
       uniform="false" />
  </defs>
  <sodipodi:namedview
     id="namedview1"
     pagecolor="#ffffff"
     bordercolor="#000000"
     borderopacity="0.25"
     inkscape:showpageshadow="2"
     inkscape:pageopacity="0.0"
     inkscape:pagecheckerboard="0"
     inkscape:deskcolor="#d1d1d1"
     showgrid="false"
     inkscape:zoom="1.09"
     inkscape:cx="293.11927"
     inkscape:cy="178.89908"
     inkscape:window-width="1920"
     inkscape:window-height="1011"
     inkscape:window-x="0"
     inkscape:window-y="0"
     inkscape:window-maximized="1"
     inkscape:current-layer="g1" />
  <g
     inkscape:groupmode="layer"
     inkscape:label="Layer 1"
     id="g1"
     transform="translate(292.89676,-0.22881044)">
    <path
       id="path9"
       style="opacity:0.99;fill:#008080;stroke-width:3.02362;stroke-linecap:round;paint-order:markers fill stroke"
       d="m -42.466042,329.4667 c 0,0 -13.625156,6.32505 -15.003906,6.56836 -1.37876,0.24331 -11.273438,3.48828 -11.273438,3.48828 l -0.810546,0.24219 -0.16211,2.27148 0.242188,3.40625 4.705078,2.18945 12.001953,2.18946 7.136719,-0.81055 15.410156,-3.08203 16.058594,-0.4043 5.271484,-1.78515 2.3515625,-7.29883 0.8125,-4.62305 -3.4882812,-1.05469 c 0,0 -12.8150923,2.59458 -13.3828123,2.83789 -0.56773,0.24331 -9.569638,-1.5396 -10.705078,-2.26953 -1.13544,-0.72993 -9.164063,-1.86523 -9.164063,-1.86523 z m 88.726563,11.11133 -3.326172,6.48828 0.24414,4.62109 1.703125,5.83984 4.865235,3.8125 8.435547,0.56836 7.623047,-3.40625 8.191406,-10.625 2.515625,-6.97461 c 0,0 -28.062173,-0.24311 -30.251953,-0.32421 z" />
    <path
       style="opacity:0.99;fill:#0000ff;stroke-width:3.02362;stroke-linecap:round;paint-order:markers fill stroke"
       d="m -39.93648,197.25753 4.23729,-7.76837 9.03955,1.6243 11.5113,2.75424 c 0,0 5.9322,1.20056 7.06214,1.3418 1.12995,0.14125 7.48588,0 8.47458,0.21187 0.9887,0.21186 10.16949,5.57909 10.16949,5.57909 l 6.99153,3.03673 c 0,0 0.0706,0.21186 0.9887,-0.0706 0.91808,-0.28249 2.54237,-1.83616 2.54237,-1.83616 l -1.27119,-4.16667 -0.84746,-5.08475 8.26272,-5.57909 18.85593,-3.03672 0.77684,1.62429 0.3531,22.24576 2.75424,12.64124 3.88418,24.22317 2.61299,21.32768 7.27402,17.86723 7.27401,25.14125 1.90678,16.59604 3.46045,10.16949 -1.48305,2.68362 c 0,0 -6.99153,0.49435 -7.83898,0.91808 -0.84746,0.42373 -23.23447,0.63559 -23.23447,0.63559 l -4.09604,-3.46045 -1.27119,-13.55932 -7.06215,-27.54238 -4.73163,-21.18644 -3.10735,-7.76836 -9.03955,-14.68926 -8.5452,-24.08192 -4.73163,2.25988 c 0,0 -12.99435,25.84746 -13.1356,26.6243 -0.14124,0.77683 -0.56497,16.03107 -0.56497,16.03107 l 3.74294,14.97175 2.61299,31.99153 v 10.5226 l -4.51977,-0.14125 -23.94068,1.41243 -6.77966,-3.88418 -0.84746,-7.41525 -3.46045,-25.14125 -3.46045,-33.96892 1.48305,-27.68362 4.87288,-24.78813 z"
       id="path8" />
    <path
       style="opacity:0.99;fill:#cccccc;stroke-width:3.02362;stroke-linecap:round;paint-order:markers fill stroke"
       d="m -247.21563,121.65917 0.90909,36.21212 1.21213,15.15152 1.68145,11.5903 4.02375,14.37995 4.8153,16.68866 c 0,0 1.91293,7.3219 1.91293,7.98153 0,0.65963 0.65963,20.11873 0.65963,20.11873 l -2.63852,21.70185 -5.47493,19.19525 -7.51979,17.54617 -5.0132,15.96306 0.65964,16.02903 1.51715,6.5963 c 0,0 1.31926,0.46174 1.91292,0.46174 0.59367,0 1.84697,-0.65963 1.84697,-0.65963 l -0.85752,-15.30343 1.38522,-11.21372 c 0,0 1.12138,-8.83905 2.57256,-9.43271 1.45119,-0.59367 10.15832,-25.13193 10.15832,-25.13193 l 4.22163,-18.33773 1.97889,-22.62533 -0.13192,-11.93932 -1.78101,-9.82849 -4.48548,-15.69921 -4.35357,-15.56728 -2.04485,-14.97362 -2.24274,-18.79947 v -22.22955 l -2.70449,-8.90501 -1.12137,0.32981 z"
       id="path7" />
    <path
       id="path6"
       style="opacity:0.99;fill:#784421;stroke-width:3.02362;stroke-linecap:round;paint-order:markers fill stroke"
       d="m 58.861328,110.16211 -9.349609,0.97656 0.08203,1.38086 6.015625,1.78906 c 0,0 10.407684,1.302 11.871094,1.8711 1.46342,0.56911 5.689453,1.30078 5.689453,1.30078 l -0.8125,-0.32617 33.496099,7.23632 27.39843,6.91016 2.60157,-1.38281 0.082,-3.82031 -20.32617,-5.69141 -28.210943,-6.17773 -20.488282,-3.00977 z m 89.025392,18.69922 -1.38281,2.52148 1.95117,5.44727 3.25195,-0.24414 3.82227,-3.4961 4.30859,4.06446 10.40625,5.28515 43.98438,15.44727 c 0,0 33.00754,12.27537 34.06445,12.92578 1.05691,0.6504 3.74023,0.24414 3.74023,0.24414 l 2.03125,-3.16992 0.32617,-2.76563 -37.31835,-14.22656 -10,-3.82226 -21.78711,-6.50391 -23.57813,-8.86133 -7.80469,-1.13867 z m 133.82031,48.13086 -1.30078,0.24414 -3.25195,2.11328 0.97656,3.90234 11.30078,6.99219 c 0,0 9.6748,5.93555 10,5.93555 0.32521,0 3.00728,1.05592 4.4707,0.32422 1.46341,-0.73171 -0.65039,-6.91016 -0.65039,-6.91016 l -9.1875,-7.1543 z"
       transform="translate(-284.63987,7.56826)" />
    <path
       id="path5"
       style="opacity:0.99;fill:#ffcc00;stroke-width:3.02362;stroke-linecap:round;paint-order:markers fill stroke"
       d="m 288.02539,50.494141 -1.60547,1.728515 -0.37109,9.382813 -4.9375,8.517578 -9.38281,5.925781 -11.48243,0.371094 0.125,4.320312 2.5918,1.605469 6.29688,0.617188 9.13476,-1.357422 8.76563,-7.285157 c 0,0 6.04882,-13.08543 6.04882,-13.826171 0,-0.740741 -0.73931,-6.79092 -1.60351,-7.408203 -0.8642,-0.617284 -3.58008,-2.591797 -3.58008,-2.591797 z m -112.4707,64.074219 c 0,0 -1.85024,0.12264 -2.83789,0.24609 -0.98765,0.12346 -3.82813,1.35742 -3.82813,1.35743 l 1.60547,7.4082 1.23438,9.01172 0.86328,2.71679 2.22265,1.48243 c 0,0 1.23428,-0.12522 1.85157,-1.23633 0.61728,-1.11112 2.22265,-10 2.22265,-10 z m 97.65429,33.45703 -1.35742,0.74023 -2.3457,1.85157 v 3.58008 l 2.7168,3.33398 5.92578,3.20898 4.6914,3.70508 2.71485,1.97461 1.97656,-1.35742 1.60547,-2.83984 -1.60547,-4.69141 -4.56836,-4.56836 z"
       transform="translate(-284.63987,7.56826)" />
    <path
       style="opacity:0.99;fill:#008000;stroke-width:3.02362;stroke-linecap:round;paint-order:markers fill stroke"
       d="m -49.50162,90.747984 14.17051,-16.24424 4.60829,-1.152074 5.87558,9.331797 2.64977,8.179724 c 0,0 4.83871,0.460829 6.3364,0.460829 1.4977,0 13.47926,-3.456221 13.47926,-3.456221 l 9.44701,-14.746544 3.22581,-9.216589 4.26267,0.230414 c 0,0 9.447,5.069125 11.86636,6.566821 2.41935,1.497695 10.9447,8.870967 10.9447,8.870967 l 4.95392,7.718894 c 0,0 2.53456,5.529954 2.53456,6.451613 0,0.921659 -0.11521,13.248845 -0.11521,13.248845 l -4.7235,37.55761 1.03686,10.59908 5.87558,10.9447 2.30415,11.52073 -4.49309,6.10599 -13.94009,4.49309 -12.78802,3.22581 -4.14747,0.11521 -11.0599,-5.06913 -7.25807,-2.30415 c 0,0 -1.03686,-4.49308 0.57604,-4.83871 1.6129,-0.34562 8.52534,-5.29954 8.52534,-5.29954 0,0 0.92166,-3.80184 0.34563,-4.60829 -0.57604,-0.80645 -6.2212,-8.98618 -6.2212,-8.98618 l -8.87097,-4.49308 -5.64516,3.34101 -10.9447,13.13364 -7.02765,-1.49769 c 0,0 -2.64977,-9.79263 -2.41936,-11.29033 0.23042,-1.49769 -2.88018,-19.12442 -2.88018,-19.12442 l -1.6129,-5.87558 -4.95392,2.18894 -28.91705,11.40553 -9.44701,1.95853 -19.47004,-4.6083 -3.1106,-2.64977 -2.30415,-21.42857 3.22581,-2.64977 14.97696,-2.18894 c 0,0 13.36405,-1.38249 13.94009,-1.72811 0.57604,-0.34562 15.55299,-13.36405 15.55299,-13.36405 l 7.83411,-8.294934 z"
       id="path4" />
    <path
       id="path3"
       style="opacity:0.99;fill:#ffccaa;stroke-width:3.02362;stroke-linecap:round;paint-order:markers fill stroke"
       d="m -10.741432,33.386619 -4.126954,1.136719 c 0,0 -4.479686,3.628099 -5.404296,3.699219 -0.92461,0.07112 -3.626954,0.923828 -3.626954,0.923828 l -8.464843,1.351563 c 0,0 -3.057812,-1.421425 -3.982422,-2.488282 -0.92461,-1.066856 -1.494318,-2.703125 -1.992188,-2.703125 -0.49786,0 -4.409853,1.849129 -5.121093,2.0625 -0.71123,0.213372 -3.199219,5.761719 -3.199219,5.761719 l -0.996094,8.960938 0.355469,5.40625 3.680485,3.742777 2.28934,4.548365 3.682461,3.7212 6.209042,4.417345 c 0,0 4.693208,6.684286 5.048828,7.822266 0.35561,1.13798 4.410156,2.632812 4.410156,2.632812 l 6.117188,-1.28125 12.3046873,-5.689453 4.9785156,-7.396484 0.5683594,-5.19336 -3.0585938,-5.902343 -5.0488281,-6.970704 -1.921875,-7.326171 -1.7070313,-10.169922 z m -107.113278,91.464841 -8.81836,1.56446 -7.89649,1.20898 -6.11523,3.41406 -6.33008,4.49805 1.20703,8.55078 4.32617,1.30664 5.93555,0.60352 4.42773,2.81836 3.37696,1.85351 2.91601,1.2793 3.91211,-0.92383 c 0,0 1.2814,-2.41814 0.92578,-2.91601 -0.35562,-0.49787 -7.11328,-6.54297 -7.11328,-6.54297 0,0 -0.99552,0.49645 -3.27148,1.49218 -2.27596,0.99574 -6.89844,0.92579 -6.89844,0.92579 l -0.92578,-5.54883 2.41797,-3.12891 7.39844,2.41797 c 0,0 4.55114,0.42725 5.54687,0.64063 0.99574,0.21337 5.61836,2.70312 6.54297,2.70312 0.92461,0 3.12891,-1.84961 3.12891,-1.84961 l -0.78125,-7.75195 z m 101.515621,37.53321 -15.585937,16.28711 -3.152344,5.77929 3.328125,3.32813 12.083984,5.77929 8.40625,0.875 5.7792973,-0.875 -2.1015625,-5.08007 3.1523437,-9.45703 0.5253906,-7.35547 -3.328125,-4.37696 z"
       sodipodi:nodetypes="ccsccssscccccccsccccccccccccccccccccccscsccccssccccccccccccccc" />
    <path
       style="opacity:0.99;fill:#aa4400;stroke-width:3.02362;stroke-linecap:round;paint-order:markers fill stroke"
       d="m -14.73122,33.360845 -6.01827,5.104782 -8.00645,1.988178 -5.80333,-1.074691 -4.08382,-4.083826 -6.93176,4.513703 -4.5137,1.77324 c 0,0 -3.38528,-1.665771 -3.60022,-2.471789 -0.21494,-0.806019 -1.77324,-6.663085 -1.77324,-6.663085 l 1.77324,-6.018269 8.8662,-10.531973 13.80978,-5.9645347 8.81247,-1.3433638 8.32885,0.9134873 6.60935,4.5137022 c 0,0 6.39442,9.833423 6.87803,9.833423 0.48361,0 2.04191,3.976357 2.04191,3.976357 l -0.53735,10.15583 -1.66577,12.573885 -2.36432,2.686728 c 0,0 -3.43901,-3.331543 -3.43901,-3.546481 0,-0.214938 -2.20312,-8.490059 -2.20312,-9.403546 0,-0.913488 -1.18216,-5.265986 -1.18216,-5.265986 l -2.57925,-1.343364 z"
       id="path2" />
    <path
       id="path1"
       style="fill:#000000;stroke-width:5.16424"
       d="m -21.938698,7.59951 c -1.095237,-0.048511 -2.210135,-0.041534 -3.337891,0.029297 -2.577724,0.1619004 -5.233674,0.6446115 -7.917968,1.4824219 -9.989068,3.1177451 -21.725809,12.9593001 -23.59375,19.7792971 -1.680722,6.136437 0.745286,13.514926 4.882812,14.828125 2.547374,0.808508 3.167969,2.571746 3.167969,9.017578 0,4.407538 0.886141,7.714487 2.732075,7.78949 2.614248,0.10622 1.856579,3.689882 4.428081,6.532775 l 4.669922,5.164063 -6.072266,8.453125 c -3.338438,4.646865 -6.667032,8.441406 -7.402343,8.441406 -0.735315,0 -6.053269,4.737324 -11.822266,10.519531 -5.768997,5.782211 -12.212064,11.411601 -14.3125,12.507811 -2.100435,1.09622 -9.904578,2.63843 -17.347656,3.42969 -8.276791,0.87989 -16.743301,2.96278 -21.796871,5.375 -4.54453,2.16923 -11.1134,4.1044 -14.59571,4.29687 -3.4823,0.1925 -7.77297,1.69199 -9.53125,3.33008 -3.57834,3.33373 -5.67124,3.15474 -32.89258,-2.81445 -22.10536,-4.84735 -35.03663,-7.03381 -51.22851,-8.6543 -7.7257,-0.7732 -15.90352,-1.80889 -18.17578,-2.31054 -4.65301,-1.02722 -11.97518,3.39338 -8.90625,5.37695 1.11682,0.72184 2.19736,11.04195 2.80469,26.78906 1.04163,27.00787 2.92172,38.43152 10.01562,60.81055 8.25132,26.0303 5.15412,60.2811 -8.0293,88.82226 -7.67828,16.62301 -9.11941,23.6179 -7.40234,35.76563 1.62945,11.52782 1.86128,11.91995 6.43359,10.46875 3.03824,-0.96429 3.2981,-1.88809 2.19922,-8.00781 -2.17712,-12.12444 -1.12047,-21.35715 3.64258,-31.69141 16.32004,-35.40913 19.91274,-69.83038 10.16602,-97.50586 -5.34701,-15.18263 -7.34999,-25.87287 -8.97657,-47.91992 -1.77184,-24.01587 -0.87429,-35.53997 2.76368,-35.52344 10.05274,0.0459 55.82064,9.41347 78.59375,16.08594 6.51664,1.90936 10.01221,3.86617 10.53906,5.88086 0.54283,2.07578 2.13939,2.91303 5.11523,2.68359 2.37888,-0.18343 7.90209,1.30653 12.27344,3.31836 6.35939,2.92679 8.43155,3.26236 10.36914,1.6543 1.95009,-1.61842 6.19306,-0.65186 21.796875,4.98242 10.657093,3.8481 20.867735,7.62843 22.685547,8.39258 1.817812,0.76414 10.367346,3.96135 19.001953,7.10937 15.474837,5.64184 15.719374,5.80549 16.712891,11.85157 0.695401,4.23187 -0.226243,10.02697 -2.97461,18.68164 -4.051469,12.75813 -7.388664,37.74716 -7.433593,55.68554 -0.04134,16.49529 3.140343,48.67428 5.042968,50.9668 1.091224,1.31487 1.391742,5.50638 0.765625,10.79297 -0.956531,8.0764 -1.471952,8.87989 -7.80664,12.1543 -3.730434,1.92827 -9.387189,3.94413 -12.56836,4.47851 -4.195386,0.70474 -5.915917,1.91038 -6.273437,4.39649 -0.539281,3.7501 3.045585,7.56435 7.544922,8.01953 1.574205,0.15925 5.50842,0.85885 8.746093,1.55273 3.848127,0.82473 9.365086,0.36078 15.935547,-1.3418 5.528137,-1.43248 14.503232,-2.61132 19.941407,-2.61132 5.918223,0 10.5595971,-0.82217 11.5585933,-2.0586 1.3705579,-1.69629 3.2064236,-10.81292 3.7519531,-18.59765 0.3780016,-5.39411 -3.5530381,-43.9224 -4.9726563,-48.73828 -3.3477841,-11.35695 -2.1020681,-18.8423 5.6484375,-34.15235 6.7738439,-13.38079 7.4512296,-14.18307 8.8359375,-10.41992 0.8253125,2.2429 3.283791,9.09535 5.4570309,15.23047 3.14169,7.02376 6.054483,14.00158 10.580077,20.09203 2.51645,3.29924 4.502987,8.58061 5.083984,13.52734 0.524062,4.46193 2.722823,15.16813 4.892578,23.80273 2.16975,8.63461 4.093868,19.0486 4.275391,23.13868 0.181528,4.09007 1.510682,8.81399 2.955078,10.5 1.63726,1.91113 2.632812,6.16087 2.632812,11.2871 0,6.23208 0.775719,8.7925 3.207032,10.57032 1.764305,1.29009 6.626147,2.34961 10.8125,2.34961 6.681528,0 8.397436,-0.79833 13.970703,-6.50586 8.523075,-8.72842 10.337919,-19.03074 5.951172,-33.66797 -1.686289,-5.62669 -3.54186,-14.36578 -4.125,-19.41602 -0.583135,-5.05026 -2.99984,-13.22807 -5.376954,-18.17578 -5.750313,-11.96868 -10.178981,-28.57205 -10.328125,-38.74219 -0.06663,-4.54453 -1.527658,-14.95851 -3.248046,-23.13867 -3.744601,-17.8051 -4.639482,-37.87247 -1.986329,-44.39062 1.563345,-3.84074 1.419861,-5.70146 -0.726562,-9.91407 -5.279158,-10.36099 -6.864701,-25.14493 -4.367188,-40.60742 1.257219,-7.78354 1.985938,-20.17949 1.623047,-27.54687 C 46.11616,88.695727 45.720817,87.479265 39.57888,79.646385 35.645522,74.630133 30.778912,70.519812 27.282005,69.247947 24.100834,68.090925 16.855245,64.213983 11.174583,60.632713 -0.15955248,53.487317 -0.70310475,52.095954 2.6609113,38.736229 6.840877,22.136042 -5.5101915,8.3271761 -21.938698,7.59951 Z m 2.945312,2.3085938 c 4.201738,0.046958 6.034453,1.0001912 9.3906254,3.8242192 7.8411836,6.597919 10.7701184,14.206861 9.46093748,24.539062 -1.47914128,11.673534 -2.99049668,14.448147 -5.41601558,9.916016 -1.0154081,-1.897305 -1.396873,-4.621497 -0.8476563,-6.052735 0.549444,-1.431233 0.5287755,-4.456332 -0.041016,-6.726562 -1.3234033,-5.272864 -7.999787,-5.618049 -11.517578,-0.595703 -1.912566,2.73056 -3.569449,3.316969 -7.292968,2.572265 -2.648619,-0.529727 -5.599388,-0.181878 -6.556641,0.775391 -1.21891,1.21891 -2.266392,0.765291 -3.490234,-1.521484 -0.961142,-1.795885 -1.350147,-3.663526 -0.867188,-4.146485 0.482944,-0.482944 0.116838,-1.345274 -0.806641,-1.916015 -0.923479,-0.570762 -3.342315,1.210898 -5.376953,3.96289 -4.307553,5.826283 -8.795402,6.442872 -11.40625,1.564453 -1.514227,-2.829362 -1.087143,-4.590017 2.429688,-9.904297 6.365988,-9.619647 15.906276,-15.251218 27.203125,-16.068359 2.071211,-0.1498174 3.734187,-0.238309 5.134765,-0.2226562 z m 6.142579,24.8945312 c 0.05489,-0.0032 0.108251,-0.0027 0.162109,0 0.861792,0.04308 1.592361,0.856239 2.087891,1.976563 0.495534,1.12033 0.7574471,2.544961 0.8867183,3.923828 0.1292712,1.378868 0.1242751,2.711906 0.3828125,4.457031 0.2585373,1.745126 0.782534,3.905742 1.0195312,5.478516 0.05472,0.363138 0.089075,0.687655 0.1210938,0.998046 0.2746393,0.313707 0.5190416,0.650432 0.7050781,0.998047 0.9349286,1.746938 2.7810325,4.263454 4.1054687,5.587891 1.3244361,1.324436 2.89390944,4.352563 3.4902344,6.728515 0.88015667,3.506812 -0.006631,5.410923 -4.7109375,10.115235 -3.1872803,3.18728 -7.3970315,5.791016 -9.3593745,5.791015 h -6.677735 c -0.908906,0 -1.043223,-1.002396 -1.654297,-1.746093 -1.705811,-2.076027 -1.572935,-4.221933 -0.753688,-6.475285 0.08151,-1.051213 3.462714,-2.595117 5.927516,-5.2337 3.29026,-3.522238 4.742188,-6.787665 4.742188,-10.68164 0,-3.085054 -0.745391,-5.609375 -1.654297,-5.609375 -0.908906,0 -1.676174,2.049316 -1.705078,4.548828 -0.06453,5.580115 -2.326886,8.567582 -10.037109,13.273437 -5.746765,3.507484 -6.044018,3.5231 -8.673829,0.617188 -1.338112,-2.471995 -2.77563,-2.345431 -5.234375,-3.38086 -0.898902,-0.487086 -1.587554,-1.316922 -1.664062,-1.925781 -0.07651,-0.608863 0.465359,-0.998771 1.59375,-1.291015 1.128391,-0.29225 2.846506,-0.482255 4.357422,-0.01953 2.613233,0.800326 1.201718,1.402341 3.599609,1.402341 4.770471,0 2.497834,-4.055321 -2.611328,-4.660156 -2.429398,-0.287597 -4.417969,-1.231805 -4.417969,-2.097656 0,-0.865862 -1.875913,-1.102623 -4.175781,-0.525391 -4.110166,1.031588 -4.164747,0.929785 -3.056641,-6.162109 0.202186,-1.293999 0.480694,-2.568878 0.796875,-3.722657 -0.196236,-0.939514 -0.24773,-2.289322 -0.15039,-3.318359 0.150812,-1.594324 0.669823,-2.411873 1.402344,-3.1875 0.732522,-0.775596 1.677208,-1.515526 2.560546,-2.248047 0.883338,-0.732527 1.703203,-1.463772 2.371094,-1.140625 0.667891,0.323183 1.185088,1.70477 2.046875,2.501953 0.861788,0.797147 2.060314,1.015094 4.236328,1.208985 2.176019,0.193922 5.325377,0.366269 7.695313,0 2.369936,-0.366253 3.962686,-1.274867 5.427734,-2.158203 1.465048,-0.883338 2.799471,-1.743859 3.962891,-2.541016 1.090708,-0.747332 2.032238,-1.434529 2.855469,-1.482422 z m -0.3125,1.087891 c -0.153125,0.003 -0.308383,0.02949 -0.464844,0.08203 -0.834474,0.280248 -1.689254,1.318558 -2.117188,1.835937 -0.20059,0.242523 -0.302874,0.371354 -0.324218,0.453125 v 0.002 c -0.0019,0.0063 -0.0082,0.02123 -0.0098,0.02734 v 0.002 0.0098 l 0.0098,0.0098 v 0.0098 c 0.0017,0.0029 0.007,0.01231 0.0098,0.01758 l 0.002,0.002 0.0098,0.01172 c 0.04022,0.0303 0.124415,0.06324 0.220703,0.09961 0.342347,0.129348 1.027656,0.38332 1.583984,0.232422 0.504174,-0.136755 0.901273,-0.601812 1.13086,-0.544922 h 0.0098 0.0098 l 0.0098,0.0098 h 0.0098 c 0.0034,0.0027 0.02791,0.01845 0.03125,0.02148 0.21397,0.19401 0.210938,1.14094 0.210938,2.197265 0,1.056324 0.0026,2.224132 0.152344,2.935547 0.149789,0.711415 0.441033,0.965382 0.826171,0.232422 0.385134,-0.732955 0.859904,-2.456457 0.988282,-3.771484 0.128377,-1.315022 -0.09194,-2.216401 -0.605469,-2.90625 -0.417245,-0.560501 -1.029812,-0.98195 -1.693359,-0.96875 z m -22.392579,9.28125 c -1.007089,0.04571 -2.460584,0.404125 -4.27539,1.11914 -4.393636,1.731047 -4.50485,1.977415 -1.462891,3.166016 2.108941,0.824022 4.158798,0.475487 5.677735,-0.966797 2.152171,-2.043587 2.136404,-3.237012 0.464843,-3.318359 -0.125367,-0.0061 -0.260427,-0.0065 -0.404297,0 z M 4.26638,60.744041 h 0.00977 0.00977 0.00977 0.00977 c 0.1449964,-0.0012 0.3076858,0.08504 0.4746094,0.251953 5.2194753,5.219485 -3.3442548,23.141434 -12.5976563,26.367188 -6.8131291,2.375059 -12.0384671,2.21973 -14.2324211,-0.423828 -1.449758,-1.746819 -0.861104,-2.049942 2.92578,-1.494141 10.646765,1.562611 22.3710943,-8.818867 22.3710943,-19.808594 0,-3.016509 0.3702252,-4.771146 0.9980468,-4.882812 h 0.00977 z m 7.373047,4.710938 c 0.05914,-0.0051 0.124281,-0.0023 0.191406,0 1.217216,0.04207 3.794741,1.312408 9.259766,4.013672 6.925719,3.423255 12.174137,7.527166 15.945312,12.457031 4.937869,6.455019 5.7083,8.805456 6.314453,19.255858 0.972214,16.76145 -4.235723,40.13468 -11.326171,50.81445 -2.425236,3.65295 -16.427568,13.1338 -23.039063,15.60352 -1.7289768,0.64586 -3.2414844,-0.43756 -4.5175781,-3.23828 -1.0544652,-2.31431 -4.52905705,-5.45373 -7.7265625,-6.97852 -3.1975054,-1.52478 -5.8105469,-3.4837 -5.8105469,-4.35742 0,-0.87372 2.6413377,-5.57361 5.8710938,-10.43945 6.3940607,-9.63306 10.6764448,-11.07317 18.9121097,-6.36524 4.847727,2.77121 6.617187,3.03665 6.617187,0.99805 0,-0.81392 -3.1684,-3.04886 -7.03125,-4.96094 -4.079547,-2.01934 -5.7185858,-3.46994 -3.912109,-3.4707 1.71053,-7.1e-4 5.654641,1.56874 8.763672,3.49023 3.109037,1.92148 6.021742,3.12865 6.466797,2.6836 1.610813,-1.61081 -9.601272,-9.48242 -13.50586,-9.48242 -3.5433544,0 -3.991469,-0.71983 -3.9042967,-6.20313 0.054183,-3.40839 0.6735771,-9.7212 1.3828127,-14.0293 1.171348,-7.115107 0.940237,-8.057881 -2.5722659,-10.359371 -3.4946764,-2.289792 -3.8730468,-2.281075 -3.8730468,0.0918 0,1.444066 0.6400661,3.875419 1.421875,5.406251 0.781814,1.53084 0.8881923,7.73564 0.2324218,13.78711 -1.048077,9.67146 -2.1057389,12.17004 -8.7148437,20.65625 -4.1353415,5.30986 -8.7302514,12.62414 -10.2187504,16.25976 -1.488498,3.63562 -5.422889,9.40216 -8.74414,12.81055 -5.800896,5.95311 -8.642223,7.33434 -10.761719,5.21484 -1.892895,-1.89289 0.718117,-5.41355 3.287109,-4.42773 1.772025,0.67999 1.213366,-1.03454 -1.785156,-5.44727 -3.900906,-5.7407 -4.384686,-8.04288 -4.488281,-21.33203 -0.06389,-8.19639 -0.683656,-16.3405 -1.371094,-18.0957 -0.687432,-1.7552 -0.273601,-7.33489 0.917969,-12.39649 3.018482,-12.821991 2.80754,-16.097992 -1.089844,-17.117181 -2.42429,-0.633967 -3.298828,-0.04982 -3.298828,2.189453 0,1.67908 0.639704,3.440404 1.421875,3.923828 0.782165,0.483409 0.381241,4.80511 -0.886719,9.60156 -1.377137,5.20955 -1.894601,11.80325 -1.291015,16.37109 0.94297,7.13627 0.676649,7.87918 -3.994141,11.20508 -11.096064,7.9011 -29.730007,14.02679 -41.748047,13.71875 -2.392545,-0.0613 -7.401956,-0.93949 -11.144531,-1.94726 -6.699327,-1.80394 -6.808597,-1.94492 -6.808597,-9.31055 0,-4.11479 -0.75532,-8.88948 -1.67578,-10.60938 -2.29034,-4.27954 2.28933,-6.57812 13.132814,-6.57812 7.568884,0 8.379059,0.36087 8.41211,3.72265 l 0.03125,3.72266 3.308594,-4.13672 3.318359,-4.125 -1.048828,4.53906 c -0.658214,2.85457 -0.3654,4.54883 0.785156,4.54883 1.00744,0 1.826172,-0.83476 1.826172,-1.85547 -5e-6,-3.93837 15.005955,-22.52877 25.185547,-31.197258 5.870428,-4.998978 11.867397,-11.137233 13.324219,-13.636719 3.500367,-6.005473 7.767578,-5.993712 7.767578,0.01953 0,2.622395 1.826809,6.5256 4.296875,9.189453 2.866369,3.091252 3.989691,5.779832 3.388672,8.078125 -1.179115,4.508949 0.567447,13.074739 2.429687,11.923829 0.798241,-0.49335 1.453125,-4.14712 1.453125,-8.11133 0,-6.792235 0.303991,-7.268884 5.365234,-8.361327 10.6555908,-2.29994 17.8710077,-7.235302 21.1621098,-14.484375 1.7295397,-3.809525 3.1575942,-8.594305 3.1777342,-10.630859 0.01589,-1.620698 0.0309,-2.534433 0.917969,-2.611328 z M -230.14182,118.93349 c 14.25076,-0.23581 81.6079,13.50399 79.66211,16.65235 -1.28381,2.07724 -3.95254,1.64603 -27.42578,-4.45899 -11.50881,-2.99325 -28.91963,-6.748 -38.70118,-8.34179 -8.71169,-1.41946 -15.25299,-2.87207 -15.74414,-3.44922 l -0.01,-0.01 -0.0117,-0.01 v -0.01 -0.01 l -0.01,-0.0117 v -0.01 -0.01 l 0.01,-0.01 v -0.01 l 0.0117,-0.0117 c 0.004,-0.004 0.024,-0.0256 0.0293,-0.0293 0.0187,-0.0106 0.0524,-0.0317 0.0801,-0.041 0.44176,-0.14725 1.15932,-0.21474 2.10938,-0.23047 z m -14.98828,4.06446 1.39062,23.96484 c 1.49,25.59966 4.55824,43.34706 10.16797,58.91406 2.53444,7.03307 3.69153,15.06108 4.26562,29.49414 0.93462,23.49675 -2.31113,40.12189 -11.95117,61.22461 -7.24343,15.85639 -9.27698,25.5497 -7.44531,35.45313 1.47443,7.97203 0.89477,10.70826 -1.18945,5.60742 -0.70307,-1.72067 -1.25526,-7.96125 -1.23047,-13.86914 0.0352,-8.34996 1.09802,-12.9479 4.77148,-20.62695 15.99087,-33.42745 19.74946,-66.97053 10.74219,-95.88086 -7.21276,-23.15057 -8.2567,-29.84608 -8.88672,-57.01758 z m 131.91992,0.82617 c 0.96037,2e-5 2.59462,1.84286 3.62109,4.0957 1.33578,2.9317 1.37124,5.63266 0.13086,9.50196 l -1.73437,5.40625 -0.17188,-6.30469 c -0.0928,-3.46815 -0.93607,-7.74389 -1.87695,-9.50196 -1.18941,-2.2228 -1.18303,-3.19725 0.0312,-3.19726 z m 101.740232,0.68555 c -1.399416,-0.0127 -2.554446,0.13053 -3.126953,0.48437 -0.966787,0.5975 -0.315605,1.58826 1.503906,2.30078 4.4589177,1.74634 12.28515625,1.77977 12.28515625,0.0508 0,-1.3541 -6.46387775,-2.79775 -10.66210925,-2.83593 z m -112.019532,2.77539 c 3.07919,-0.0343 5.5812,0.61503 6.76953,2.04687 2.8705,3.45875 1.88092,11.44718 -1.18164,9.53125 -1.58815,-0.99355 -1.70718,-1.73831 -0.39258,-2.55078 1.02074,-0.63087 1.3974,-1.88961 0.83789,-2.79492 -0.61916,-1.00182 -2.14777,-0.61997 -3.91406,0.97851 -2.74067,2.48027 -8.3418,2.00731 -8.3418,-0.70507 0,-1.64577 -8.05234,-0.0766 -9.20898,1.79492 -0.49466,0.80038 -2.44688,1.46289 -4.33789,1.46289 -2.73274,0 -2.12254,-0.90716 2.98633,-4.39844 4.91484,-3.35869 11.65122,-5.30803 16.7832,-5.36523 z m 81.376954,9.76367 c 0.672601,0.0546 1.653963,3.56213 2.169922,7.8457 0.520013,4.3173 1.453919,11.00435 2.078125,14.86719 0.878995,5.43958 0.618009,7.00762 -1.150391,6.93945 -1.255809,-0.0484 -10.830784,-3.32334 -21.283203,-7.28125 -18.125088,-6.86324 -18.788403,-7.28647 -14.351563,-9.00781 2.558664,-0.99266 5.565316,-1.79492 6.685547,-1.79492 1.120227,0 7.112332,-2.60789 13.324219,-5.78906 6.211908,-3.18117 11.854139,-5.7793 12.527344,-5.7793 z m -93.216794,0.83594 c 0.62783,-0.0338 1.57014,0.20824 2.88281,0.68554 2.75999,1.00355 2.80426,1.31346 0.43555,3.2793 -2.20037,1.82615 -2.78012,1.74374 -3.66211,-0.55469 -0.87569,-2.28202 -0.85481,-3.34559 0.34375,-3.41015 z m 9.85351,2.72265 v 0.002 c 1.067,3.8e-4 4.82558,1.2702 12.54688,3.94336 6.67663,2.31149 19.576954,6.71103 28.666013,9.7832 27.348749,9.2441 51.102922,18.70715 51.732422,20.5957 1.052266,3.1568 -4.999852,1.56719 -28.59375,-7.48242 -12.724684,-4.88065 -30.933078,-11.56547 -40.457035,-14.85742 -9.52395,-3.29196 -19.10579,-7.39871 -21.29296,-9.11914 -1.75776,-1.38267 -2.85266,-2.30216 -2.9336,-2.68164 v -0.0117 -0.01 -0.01 -0.01 -0.01 l 0.01,-0.0117 v -0.01 l 0.01,-0.01 v -0.01 l 0.01,-0.01 c 0.0497,-0.0441 0.16151,-0.082 0.30273,-0.082 z m -15.29883,0.47266 c 0.54226,0.007 0.6837,0.33764 0.31055,0.94141 -0.5553,0.8985 -1.70724,1.63281 -2.5625,1.63281 -2.37709,0 -1.85315,-1.18069 1.00977,-2.2793 0.45958,-0.17635 0.84027,-0.2754 1.1289,-0.29297 0.0397,-0.002 0.0771,-0.002 0.11328,-0.002 z m 12.96875,2.03906 c 0.34151,-0.0258 0.52484,0.14627 0.55469,0.47461 0.053,0.58371 -0.37346,1.64364 -1.08984,2.57227 -0.71638,0.92864 -1.72323,1.73257 -2.57227,1.86523 -0.84904,0.13266 -1.53984,-0.39874 -1.88476,-0.66406 -0.0862,-0.0663 -0.15534,-0.13313 -0.19141,-0.18164 -0.002,-0.004 -0.01,-0.0267 -0.0117,-0.0312 l -0.01,-0.01 c -6.4e-4,-0.005 1.1e-4,-0.0246 0,-0.0293 v -0.0117 -0.01 -0.01 c 0.0358,-0.12586 0.23693,-0.32087 0.66601,-0.70704 0.79597,-0.71637 2.38793,-2.13943 3.44922,-2.80273 0.46432,-0.2902 0.82422,-0.43499 1.08984,-0.45508 z m 2.51172,2.32031 c 0.61438,-0.007 1.13012,0.21714 1.16993,0.51563 0.0531,0.39799 -0.73432,0.93321 -1.3711,1.62305 -0.63679,0.68984 -1.12088,1.53707 -1.625,1.85546 -0.50412,0.31839 -1.03546,0.10613 -1.30078,0 -0.0871,-0.0348 -0.14539,-0.0614 -0.18164,-0.0898 l -0.01,-0.01 -0.01,-0.0117 -0.01,-0.01 c -0.002,-0.004 -0.0106,-0.0255 -0.0117,-0.0293 -0.0149,-0.0566 -0.0115,-0.15182 0.0117,-0.30273 0.0531,-0.34492 0.16419,-1.02971 0.61524,-1.74609 0.45105,-0.71637 1.24861,-1.46433 2.09765,-1.70313 0.21226,-0.0597 0.4202,-0.0893 0.625,-0.0918 z m 2.17383,2.66016 c 0.10129,0.005 0.20069,0.0165 0.29688,0.0332 0.76944,0.13266 1.35744,0.66628 1.03906,1.25 -0.31838,0.58371 -1.5382,1.21483 -2.14844,1.53321 -0.61024,0.31839 -0.60934,0.32178 -0.92773,0.24218 -0.31839,-0.0796 -0.95994,-0.23449 -1.11914,-0.68554 -0.1592,-0.45105 0.16009,-1.20097 0.79687,-1.70508 0.47758,-0.37809 1.13082,-0.62177 1.75391,-0.66406 0.10385,-0.007 0.2073,-0.009 0.30859,-0.004 z m 159.955079,6.18555 3.136719,3.52148 c 3.983136,4.4718 7.903944,16.17662 6.576172,19.63672 -0.557015,1.45156 -1.960439,2.91279 -3.117187,3.24805 -1.156748,0.33525 -8.063954,2.55101 -15.351563,4.92187 -7.287608,2.37086 -13.610766,4.26146 -14.048828,4.19727 -1.335596,-0.19572 -15.5124384,-6.61595 -16.2597657,-7.36328 -1.317733,-1.31773 7.2077853,-7.47948 17.4589847,-12.61914 5.638275,-2.82688 12.802289,-7.47688 15.925781,-10.33789 z m -47.154296,4.95312 c 3.237166,0.12117 7.9730638,2.87624 10.41015575,6.59571 3.99761125,6.10113 2.17552865,8.47255 -2.58203125,3.35937 -2.2542521,-2.42274 -5.8967875,-5.09516 -8.0898435,-5.94141 -2.658224,-1.02575 -3.431786,-2.09555 -2.330078,-3.19726 0.608249,-0.60825 1.512738,-0.8568 2.591797,-0.81641 z m -6.19336,5.91992 5.40625,2.69336 c 5.0069255,2.49216 5.325949,3.1284 4.3281251,8.66407 -0.5923175,3.28604 -1.7426357,7.2564 -2.5527343,8.82617 -2.0309918,3.9355 -7.4974288,6.74619 -8.8554688,4.54883 -0.578152,-0.93548 -1.928496,-1.56243 -2.996094,-1.39258 -2.96561,0.47186 -11.023437,-3.23777 -11.023437,-5.07227 5e-6,-0.89301 3.5284,-5.36872 7.845703,-9.94531 z m 12.810547,21.50391 c 3.44073544,-0.80726 23.138567,11.50684 22.724609,14.82813 -0.34545,2.77163 -2.251672,1.91588 -13.7285152,-5.36524 -10.6925044,-6.78352 -13.2043658,-8.47555 -8.9960938,-9.46289 z m 45.873047,0.63672 c 1.217071,0.0601 2.062886,0.32087 2.369141,0.81641 0.542989,0.87857 0.270733,4.78284 -0.603516,8.67382 -1.007992,4.48608 -1.010525,7.77503 -0.01172,8.97852 1.983244,2.38967 8.150391,35.57867 8.150391,43.86523 0,9.2089 4.64219,27.49862 8.925781,35.17188 3.735341,6.69117 7.147056,19.38949 7.384766,27.48437 0.0679,2.3125 1.253563,7.42053 2.642578,11.35743 3.285055,9.31088 3.192642,12.95468 -0.363281,13.93945 -4.052022,1.12213 -26.298382,0.79357 -28.140625,-0.41406 -0.836002,-0.54802 -2.007335,-6.36292 -2.603516,-12.92969 -0.59618,-6.56677 -2.490355,-15.86364 -4.214844,-20.6582 -1.724489,-4.79456 -3.537214,-13.08023 -4.02539,-18.40625 -0.697916,-7.61426 -2.638351,-12.72801 -9.06836,-23.95508 -4.497659,-7.85312 -9.866776,-19.1175 -11.93164,-25.02539 C 6.7332914,224.90376 -7.1050828,199.8456 -9.3918231,199.8456 c -0.7355679,0 -1.3300779,1.08705 -1.3300779,2.42188 0,1.47837 -0.972466,2.06185 -2.482422,1.48242 -1.363359,-0.52316 -2.480469,-0.17927 -2.480469,0.76563 0,0.9449 1.458436,2.17986 3.236328,2.74414 1.777893,0.56428 5.2057403,3.35913 7.6152346,6.22265 6.0788252,7.22427 4.92795065,14.62223 -5.6171876,36.08008 -5.802316,11.80689 -8.157508,18.37725 -7.484375,20.92774 0.539735,2.04503 1.553107,3.71289 2.25,3.71289 2.094827,0 3.434019,6.52742 5.082031,24.79296 0.8610698,9.54351 1.9989114,20.06621 2.5332035,23.38868 l 0.9785156,6.04297 -12.1445311,1.11914 c -16.71697,1.54118 -21.232422,-0.33239 -21.232422,-8.80469 0,-3.53407 -0.811898,-10.42646 -1.804687,-15.32227 -2.079907,-10.25679 -4.945863,-36.84287 -5.144532,-47.73828 -0.192807,-10.57365 4.500987,-44.04131 7.847657,-55.96875 3.111283,-11.08853 2.585941,-10.8839 16.773437,-6.57812 2.906247,0.88202 9.231328,1.39129 14.0507813,1.13086 7.5915339,-0.41019 9.7994159,0.23252 16.5,4.85156 4.2538407,2.93238 8.8746857,5.33594 10.2695317,5.33594 4.036146,0 6.220563,-5.61125 3.589843,-9.20899 -2.015798,-2.75676 -1.642908,-3.31191 3.802735,-5.75 6.077198,-2.72085 13.102701,-4.37548 16.753906,-4.19531 z m -51.8242189,4.48828 c 0.7570877,-0.0511 1.4419513,0.10015 1.7851563,0.44336 0.549129,0.54911 -0.4259003,0.93897 -2.1679684,0.86719 -0.954103,-0.0393 -1.545116,-0.17027 -1.72461,-0.3418 l -0.01172,-0.01 c -0.0028,-0.005 -0.0055,-0.0148 -0.0078,-0.0195 l -0.002,-0.002 -0.0098,-0.01 c -0.0051,-0.0132 -0.01549,-0.0422 -0.01953,-0.0605 v -0.01 -0.01 c 0.03638,-0.14836 0.296475,-0.34351 0.775391,-0.53516 0.447353,-0.17902 0.92856,-0.28185 1.3828121,-0.3125 z m 58.4101559,79.14648 c -0.05479,-0.002 -0.112796,-8.4e-4 -0.171875,0.002 -0.739772,0.035 -1.814994,0.41971 -3.175781,1.26953 -1.76414,1.10173 -4.796843,1.99805 -6.738281,1.99805 -2.950304,0 -3.19212,0.40863 -1.472656,2.48046 2.713508,3.26958 4.953865,3.06154 9.732422,-0.91796 3.147191,-2.62095 3.524506,-4.78081 1.826171,-4.83204 z m -90.828125,61.09375 c 1.503062,0.007 2.940848,0.40728 4.902344,1.09961 7.368522,2.60078 14.604894,2.71926 21.363281,0.36329 6.9970119,-2.43917 9.7952387,-0.0723 7.0507816,5.95117 -1.7399096,3.81867 -2.7889886,4.17728 -12.2656246,4.18554 -5.700148,0.005 -12.967267,0.67851 -16.148438,1.49414 -10.737856,2.75309 -14.012384,2.94118 -22.714844,1.31055 -5.414017,-1.01446 -8.683593,-2.47123 -8.683593,-3.87305 0,-1.23553 1.303946,-2.24928 2.894531,-2.25 1.590586,-7.2e-4 7.355173,-2.08237 12.808594,-4.61914 5.604268,-2.60694 8.287873,-3.67419 10.792968,-3.66211 z m -222.394529,10.36915 c -0.72719,-0.0196 -1.568,0.1243 -2.51172,0.42382 -3.47944,1.10433 -3.56829,1.3915 -1.0293,3.24805 1.53327,1.12116 2.78321,2.44004 2.78321,2.92578 0,1.7658 -11.88629,-1.85897 -14.82618,-4.51953 -2.17831,-1.97134 -3.34977,-2.19054 -4.20507,-0.80664 -1.89472,3.06573 3.44654,7.05239 11.125,8.30078 10.60488,1.72431 14.52343,1.7306 14.52343,0.0312 0,-0.84226 -1.30394,-1.85173 -2.89453,-2.24023 -0.14911,-0.0364 -0.24561,-0.0708 -0.29297,-0.0996 h -0.01 l -0.01,-0.0117 -0.01,-0.01 v -0.01 -0.01 -0.01 h 0.01 v -0.01 l 0.01,-0.0117 c 0.42295,-0.18463 4.36744,-0.0868 9.98633,0.27344 7.25527,0.46511 16.16482,-0.0536 21.07031,-1.23047 11.25798,-2.70075 13.1727,-5.72724 2.4707,-3.9043 -12.78239,2.1773 -31.92153,1.65845 -33.50781,-0.9082 -0.56228,-0.90982 -1.46966,-1.38923 -2.68164,-1.42187 z m 333.486326,0.40429 c 3.832232,0.0846 4.539063,0.78284 4.539063,2.75391 0,1.66545 -2.762285,5.62551 -6.132813,8.80469 -7.752921,7.31278 -17.050482,8.11621 -21.171875,1.82617 -3.791475,-5.78653 -1.713351,-12.51895 3.933594,-12.74024 2.400958,-0.0941 8.642911,-0.33696 13.869141,-0.54297 2.06175,-0.0813 3.68548,-0.12977 4.96289,-0.10156 z m -18.599609,9.12891 c -0.850081,0 -1.414292,0.0616 -1.613281,0.17969 l -0.002,0.002 c -0.0041,0.002 -0.01146,0.006 -0.01563,0.008 l -0.002,0.002 -0.01172,0.01 v 0.01 0.01 l -0.0098,0.01 v 0.0117 0.01 c 0,0.2225 0.552594,0.63959 1.654297,1.35156 1.363364,0.88108 3.589766,1.60352 4.953125,1.60352 0.850096,0 1.414297,-0.0636 1.613281,-0.18164 l 0.002,-0.002 c 0.0041,-0.002 0.01146,-0.006 0.01563,-0.008 h 0.002 l 0.01172,-0.01 v -0.0117 -0.01 l 0.0098,-0.01 v -0.01 -0.01 -0.0117 c 0,-0.22248 -0.552595,-0.62787 -1.654297,-1.33985 -1.363359,-0.88107 -3.589766,-1.60351 -4.953125,-1.60351 z"
       sodipodi:nodetypes="ssssssscccssssssssscsssssssssscssssssssssssssssssssssssssssssssssssssssssssssssssssscssssssssssssscsssscssssssscssssssssssssssscsssssssssssssccccccccccssccccccsssssscscsscccccccsssscccscsssssssssssssssssssssssssssssssssssssssssscccccssscssssssscscsssccccccccccscccccsscsscssccssccscssscssssssssssssscssssscscssssscsssssssccccccccccccssssssscssscccccccssscssssccccccsscscssssssscsssssssccssssssccsssssccssssssssssssssscssssssssssssscccssssssssssssssccccccccssssssssscssssssssscsscssscssccccccccccssssssssssssscccccccccsssccccccccccssssccccccccccsssc" />
  </g>
</svg>
